<?xml version="1.0" standalone="yes"?>
<svg xmlns="http://www.w3.org/2000/svg" width="48" height="42">
<path style="fill:#010101; stroke:none;" d="M0 0L0 29L1 29C3.78218 15.5565 6.33676 5.62228 20 1L0 0z"/>
<path style="fill:#411111; stroke:none;" d="M20 0L21 1L20 0z"/>
<path style="fill:#3a1212; stroke:none;" d="M47 42L47 40C37.1062 39.9727 22.0094 40.8368 13 36.6759C10.0829 35.3287 4.80819 33.2372 3.90355 29.7901C2.90191 25.9734 5.85932 20.5842 6.97454 17C8.00695 13.6819 8.59158 9.95379 11.2785 7.49923C16.4679 2.75871 26.1558 1.6006 22 11L21 11L14 10L14 28C23.5243 23.4279 24.2134 23.6727 34 28L32 23L47 23C42.6839 15.5865 25.0592 19.9142 18 22L17 12C23.8681 13.0522 32.4039 4.91889 22.9807 1.21296C10.4294 -3.72319 4.73715 13.9044 2.42747 22C1.5961 24.914 -0.402216 29.6143 1.26929 32.5046C8.14584 44.3956 35.5792 41.9987 47 42z"/>
<path style="fill:#010101; stroke:none;" d="M23 0C27.4454 6.73386 26.2141 12.4699 17 12L18 22C27.4662 19.7526 38.6489 18.5064 48 21L48 0L23 0z"/>
<path style="fill:#411111; stroke:none;" d="M15 2L16 3L15 2M21 2L22 3L21 2z"/>
<path style="fill:#010101; stroke:none;" d="M48 41L48 35L40 31L48 34L48 22C42.1482 21.845 32.4509 18.7088 34 28C25.1439 23.5177 22.6695 21.8852 14 28L14 10L21 11C24.2624 8.18681 25.0036 2.59061 18.9599 3.66821C10.8273 5.11825 -2.57596 25.9732 5.32176 32.6759C16.9697 42.5615 34.1121 37.692 48 41z"/>
<path style="fill:#ff2423; stroke:none;" d="M33 3L35 5L33 3z"/>
<path style="fill:#ff2726; stroke:none;" d="M34 3L36 5L36 3L34 3z"/>
<path style="fill:#ff2423; stroke:none;" d="M36 3C38.1671 6.68269 40.3368 5.91066 43 3L41 5L38 6L38 3L36 3z"/>
<path style="fill:#ff2726; stroke:none;" d="M37 5L41 4L37 5M43 3L42 4L45 6L42 11L39 12L38 12L34 4C29.1892 7.80734 34.899 12.071 38 15C42.4598 11.734 47.8977 8.3172 43 3z"/>
<path style="fill:#ff2423; stroke:none;" d="M44 3L45 4L44 3z"/>
<path style="fill:#411111; stroke:none;" d="M10 4L11 5L10 4M16 4L17 5L16 4M23 4L24 5L23 4z"/>
<path style="fill:#ff2423; stroke:none;" d="M45.3333 4.66667L45.6667 5.33333L45.3333 4.66667M31.3333 5.66667L31.6667 6.33333L31.3333 5.66667z"/>
<path style="fill:#010101; stroke:none;" d="M34 5L38 12L39 12L44 8L44 6L43 5L34 5z"/>
<path style="fill:#411111; stroke:none;" d="M11 6L12 7L11 6z"/>
<path style="fill:#ff2423; stroke:none;" d="M33.3333 6.66667L33.6667 7.33333L33.3333 6.66667M44 6L45 7L44 6M46 6L47 7L46 6M31 8L32 9L31 8M34 8L35 9L34 8M35 9L36 10L35 9M41.3333 9.66667L41.6667 10.3333L41.3333 9.66667z"/>
<path style="fill:#411111; stroke:none;" d="M8 11L9 12L8 11z"/>
<path style="fill:#ff2423; stroke:none;" d="M34 11L35 12L34 11M42 11L43 12L42 11M41 12L42 13L41 12M39 13L39 15L41 13L39 13z"/>
<path style="fill:#411111; stroke:none;" d="M35 21L36 22L35 21M47 21L48 22L47 21M32 23L33 24L32 23M31 27L32 28L31 27M0 29L1 30L0 29z"/>
<path style="fill:#ff2423; stroke:none;" d="M10 30L10 31L14 33L10 30z"/>
<path style="fill:#ff2726; stroke:none;" d="M10 31C13.6973 37.4162 21.4374 37 28 37L28 36L10 31z"/>
<path style="fill:#ff2423; stroke:none;" d="M40.3333 31.6667L40.6667 32.3333L40.3333 31.6667z"/>
<path style="fill:#ff2726; stroke:none;" d="M41 31L42 35L47 35L47 34L41 31z"/>
<path style="fill:#ff2423; stroke:none;" d="M42 31L43 32L42 31z"/>
<path style="fill:#411111; stroke:none;" d="M0 32L1 33L0 32z"/>
<path style="fill:#ff2423; stroke:none;" d="M43 32L44 33L43 32z"/>
<path style="fill:#010101; stroke:none;" d="M0 33L0 42L37 42L37 41L17 40.6096L0 33z"/>
<path style="fill:#ff2423; stroke:none;" d="M44 33L44 34L47 34L44 33z"/>
<path style="fill:#411111; stroke:none;" d="M8 34L9 35L8 34z"/>
<path style="fill:#ff2423; stroke:none;" d="M12 34L13 35L12 34M16 34L17 35L16 34M43 34L44 35L43 34M47 34L48 35L47 34M14.6667 35.3333L15.3333 35.6667L14.6667 35.3333M19.6667 35.3333L20.3333 35.6667L19.6667 35.3333M25 35L25 36L28 36L25 35M16 36L17 37L16 36M19 37L19 38L27 38L19 37z"/>
<path style="fill:#411111; stroke:none;" d="M30 38L31 39L30 38M15 40L16 41L15 40M32 40L33 41L32 40M47 41L48 42L47 41z"/>
</svg>
